<svg width="64" height="64" viewBox="0 0 64 64" fill="none" xmlns="http://www.w3.org/2000/svg">
    <rect width="64" height="64" rx="32" fill="#BEE1E6"/>
    <path d="M44 24C42.9 24 42 24.9 42 26C42 27.1 42.9 28 44 28C45.1 28 46 27.1 46 26C46 24.9 45.1 24 44 24ZM32 24C27.6 24 24 27.6 24 32C24 36.4 27.6 40 32 40C36.4 40 40 36.4 40 32C40 27.6 36.4 24 32 24ZM32 38C28.7 38 26 35.3 26 32C26 28.7 28.7 26 32 26C35.3 26 38 28.7 38 32C38 35.3 35.3 38 32 38ZM20 26C18.9 26 18 26.9 18 28C18 29.1 18.9 30 20 30C21.1 30 22 29.1 22 28C22 26.9 21.1 26 20 26Z" fill="#006D77"/>
</svg> 