<svg width="64" height="64" viewBox="0 0 64 64" fill="none" xmlns="http://www.w3.org/2000/svg">
    <rect width="64" height="64" rx="32" fill="#BEE1E6"/>
    <path d="M42 22H22C21.4477 22 21 22.4477 21 23V41C21 41.5523 21.4477 42 22 42H42C42.5523 42 43 41.5523 43 41V23C43 22.4477 42.5523 22 42 22ZM41 40H23V24H41V40Z" fill="#006D77"/>
    <path d="M32 26C28.1 26 25 29.1 25 33C25 36.9 28.1 40 32 40C35.9 40 39 36.9 39 33C39 29.1 35.9 26 32 26ZM32 38C29.2 38 27 35.8 27 33C27 30.2 29.2 28 32 28C34.8 28 37 30.2 37 33C37 35.8 34.8 38 32 38Z" fill="#006D77"/>
    <path d="M32 30C30.3 30 29 31.3 29 33C29 34.7 30.3 36 32 36C33.7 36 35 34.7 35 33C35 31.3 33.7 30 32 30Z" fill="#006D77"/>
</svg> 